<svg xmlns="http://www.w3.org/2000/svg" viewBox="0 0 64 64" fill="none">
  <!-- Background Circle with Gradient -->
  <defs>
    <linearGradient id="bgGradient" x1="0%" y1="0%" x2="100%" y2="100%">
      <stop offset="0%" style="stop-color:#667eea;stop-opacity:1" />
      <stop offset="100%" style="stop-color:#764ba2;stop-opacity:1" />
    </linearGradient>
    <linearGradient id="checkGradient" x1="0%" y1="0%" x2="100%" y2="100%">
      <stop offset="0%" style="stop-color:#10b981;stop-opacity:1" />
      <stop offset="100%" style="stop-color:#059669;stop-opacity:1" />
    </linearGradient>
  </defs>
  
  <!-- Main Background -->
  <rect width="64" height="64" rx="16" fill="url(#bgGradient)"/>
  
  <!-- Task Board Grid Pattern -->
  <g opacity="0.3">
    <line x1="22" y1="8" x2="22" y2="56" stroke="white" stroke-width="1"/>
    <line x1="42" y1="8" x2="42" y2="56" stroke="white" stroke-width="1"/>
  </g>
  
  <!-- Task Cards -->
  <!-- Card 1 - Completed -->
  <rect x="10" y="14" width="10" height="10" rx="2" fill="white" opacity="0.95"/>
  <path d="M12 19 L14 21 L18 17" stroke="url(#checkGradient)" stroke-width="2" stroke-linecap="round" stroke-linejoin="round"/>
  
  <!-- Card 2 - In Progress -->
  <rect x="27" y="14" width="10" height="10" rx="2" fill="white" opacity="0.95"/>
  <circle cx="32" cy="19" r="3" fill="none" stroke="#3b82f6" stroke-width="2"/>
  <path d="M32 16 L32 19 L34 21" stroke="#3b82f6" stroke-width="2" stroke-linecap="round" stroke-linejoin="round"/>
  
  <!-- Card 3 - Todo -->
  <rect x="44" y="14" width="10" height="10" rx="2" fill="white" opacity="0.95"/>
  <circle cx="49" cy="19" r="3" fill="none" stroke="#8b5cf6" stroke-width="2"/>
  
  <!-- Progress Bar at Bottom -->
  <rect x="10" y="36" width="44" height="4" rx="2" fill="white" opacity="0.3"/>
  <rect x="10" y="36" width="28" height="4" rx="2" fill="white" opacity="0.9"/>
  
  <!-- Calendar Icon -->
  <rect x="10" y="44" width="14" height="10" rx="2" fill="white" opacity="0.9"/>
  <line x1="10" y1="48" x2="24" y2="48" stroke="#667eea" stroke-width="1"/>
  <circle cx="14" cy="51" r="1" fill="#667eea"/>
  <circle cx="20" cy="51" r="1" fill="#667eea"/>
  
  <!-- Star for Priority -->
  <path d="M40 48 L42 52 L46 52 L43 55 L44 59 L40 56 L36 59 L37 55 L34 52 L38 52 Z" fill="white" opacity="0.9"/>
</svg>